<mxfile host="app.diagrams.net" agent="Mozilla/5.0 (Windows NT 10.0; Win64; x64) AppleWebKit/537.36 (KHTML, like Gecko) Chrome/129.0.0.0 Safari/537.36" version="24.8.0">
  <diagram name="Página-1" id="J1MLA73qcCn-DmNAVhSQ">
    <mxGraphModel dx="1195" dy="650" grid="1" gridSize="10" guides="1" tooltips="1" connect="1" arrows="1" fold="1" page="1" pageScale="1" pageWidth="827" pageHeight="1169" math="0" shadow="0">
      <root>
        <mxCell id="0" />
        <mxCell id="1" parent="0" />
        <mxCell id="UZdyIf10ZG2hCtO2mgoP-14" value="" style="edgeStyle=orthogonalEdgeStyle;rounded=0;orthogonalLoop=1;jettySize=auto;html=1;" parent="1" source="UZdyIf10ZG2hCtO2mgoP-1" edge="1">
          <mxGeometry relative="1" as="geometry">
            <mxPoint x="420" y="170" as="targetPoint" />
          </mxGeometry>
        </mxCell>
        <mxCell id="UZdyIf10ZG2hCtO2mgoP-1" value="&lt;font size=&quot;3&quot; face=&quot;Times New Roman&quot;&gt;INÍCIO&lt;/font&gt;" style="ellipse;whiteSpace=wrap;html=1;" parent="1" vertex="1">
          <mxGeometry x="360" y="80" width="120" height="40" as="geometry" />
        </mxCell>
        <mxCell id="UZdyIf10ZG2hCtO2mgoP-2" value="&lt;font size=&quot;3&quot; face=&quot;Times New Roman&quot;&gt;FIM&lt;/font&gt;" style="ellipse;whiteSpace=wrap;html=1;" parent="1" vertex="1">
          <mxGeometry x="360" y="760" width="120" height="40" as="geometry" />
        </mxCell>
        <mxCell id="UZdyIf10ZG2hCtO2mgoP-15" value="" style="edgeStyle=orthogonalEdgeStyle;rounded=0;orthogonalLoop=1;jettySize=auto;html=1;" parent="1" source="UZdyIf10ZG2hCtO2mgoP-5" target="UZdyIf10ZG2hCtO2mgoP-8" edge="1">
          <mxGeometry relative="1" as="geometry" />
        </mxCell>
        <mxCell id="UZdyIf10ZG2hCtO2mgoP-5" value="&lt;font style=&quot;font-size: 10px;&quot;&gt;&amp;nbsp;&lt;/font&gt;&lt;font size=&quot;1&quot; style=&quot;&quot;&gt;L&lt;/font&gt;&lt;font size=&quot;1&quot; style=&quot;&quot;&gt;EITURA&lt;/font&gt;&lt;div&gt;&lt;font size=&quot;1&quot; style=&quot;&quot;&gt;VARIAVEL LETRA&lt;/font&gt;&lt;/div&gt;" style="html=1;strokeWidth=2;shape=manualInput;whiteSpace=wrap;rounded=1;size=26;arcSize=11;" parent="1" vertex="1">
          <mxGeometry x="370" y="160" width="100" height="60" as="geometry" />
        </mxCell>
        <mxCell id="23Pe55zhsIr4CrI0r66G-1" style="edgeStyle=orthogonalEdgeStyle;rounded=0;orthogonalLoop=1;jettySize=auto;html=1;exitX=1;exitY=0.5;exitDx=0;exitDy=0;exitPerimeter=0;entryX=0.5;entryY=0;entryDx=0;entryDy=0;" edge="1" parent="1" source="UZdyIf10ZG2hCtO2mgoP-6" target="UZdyIf10ZG2hCtO2mgoP-10">
          <mxGeometry relative="1" as="geometry" />
        </mxCell>
        <mxCell id="UZdyIf10ZG2hCtO2mgoP-6" value="&lt;font face=&quot;Times New Roman&quot; style=&quot;font-size: 11px;&quot;&gt;INFORMA&lt;/font&gt;&lt;div style=&quot;font-size: 11px;&quot;&gt;&lt;font face=&quot;auJy5g3nRt0Zqfw2Nj40&quot; style=&quot;font-size: 11px;&quot;&gt;SOLTEIRO&lt;/font&gt;&lt;/div&gt;" style="shape=display;whiteSpace=wrap;html=1;" parent="1" vertex="1">
          <mxGeometry x="520" y="280" width="90" height="40" as="geometry" />
        </mxCell>
        <mxCell id="UZdyIf10ZG2hCtO2mgoP-24" value="" style="edgeStyle=orthogonalEdgeStyle;rounded=0;orthogonalLoop=1;jettySize=auto;html=1;" parent="1" source="UZdyIf10ZG2hCtO2mgoP-8" target="UZdyIf10ZG2hCtO2mgoP-6" edge="1">
          <mxGeometry relative="1" as="geometry" />
        </mxCell>
        <mxCell id="UZdyIf10ZG2hCtO2mgoP-8" value="&lt;font style=&quot;font-size: 10px;&quot;&gt;SE LETRA == S&lt;/font&gt;" style="strokeWidth=2;html=1;shape=mxgraph.flowchart.decision;whiteSpace=wrap;" parent="1" vertex="1">
          <mxGeometry x="370" y="250" width="100" height="100" as="geometry" />
        </mxCell>
        <mxCell id="23Pe55zhsIr4CrI0r66G-5" style="edgeStyle=orthogonalEdgeStyle;rounded=0;orthogonalLoop=1;jettySize=auto;html=1;exitX=0.5;exitY=1;exitDx=0;exitDy=0;entryX=1;entryY=0.5;entryDx=0;entryDy=0;" edge="1" parent="1" source="UZdyIf10ZG2hCtO2mgoP-10" target="UZdyIf10ZG2hCtO2mgoP-2">
          <mxGeometry relative="1" as="geometry" />
        </mxCell>
        <mxCell id="UZdyIf10ZG2hCtO2mgoP-10" value="" style="ellipse;whiteSpace=wrap;html=1;aspect=fixed;" parent="1" vertex="1">
          <mxGeometry x="690" y="640" width="40" height="40" as="geometry" />
        </mxCell>
        <mxCell id="UZdyIf10ZG2hCtO2mgoP-25" value="" style="edgeStyle=orthogonalEdgeStyle;rounded=0;orthogonalLoop=1;jettySize=auto;html=1;" parent="1" source="UZdyIf10ZG2hCtO2mgoP-17" target="UZdyIf10ZG2hCtO2mgoP-22" edge="1">
          <mxGeometry relative="1" as="geometry" />
        </mxCell>
        <mxCell id="UZdyIf10ZG2hCtO2mgoP-17" value="&lt;font style=&quot;font-size: 10px;&quot;&gt;SE LETRA == C&lt;/font&gt;" style="strokeWidth=2;html=1;shape=mxgraph.flowchart.decision;whiteSpace=wrap;" parent="1" vertex="1">
          <mxGeometry x="370" y="370" width="100" height="100" as="geometry" />
        </mxCell>
        <mxCell id="UZdyIf10ZG2hCtO2mgoP-26" value="" style="edgeStyle=orthogonalEdgeStyle;rounded=0;orthogonalLoop=1;jettySize=auto;html=1;" parent="1" source="UZdyIf10ZG2hCtO2mgoP-18" target="UZdyIf10ZG2hCtO2mgoP-23" edge="1">
          <mxGeometry relative="1" as="geometry" />
        </mxCell>
        <mxCell id="UZdyIf10ZG2hCtO2mgoP-18" value="&lt;font style=&quot;font-size: 10px;&quot;&gt;SE LETRA == D&lt;/font&gt;" style="strokeWidth=2;html=1;shape=mxgraph.flowchart.decision;whiteSpace=wrap;" parent="1" vertex="1">
          <mxGeometry x="370" y="490" width="100" height="100" as="geometry" />
        </mxCell>
        <mxCell id="UZdyIf10ZG2hCtO2mgoP-20" style="edgeStyle=orthogonalEdgeStyle;rounded=0;orthogonalLoop=1;jettySize=auto;html=1;exitX=0.5;exitY=1;exitDx=0;exitDy=0;exitPerimeter=0;entryX=0.5;entryY=0;entryDx=0;entryDy=0;entryPerimeter=0;" parent="1" source="UZdyIf10ZG2hCtO2mgoP-8" target="UZdyIf10ZG2hCtO2mgoP-17" edge="1">
          <mxGeometry relative="1" as="geometry" />
        </mxCell>
        <mxCell id="UZdyIf10ZG2hCtO2mgoP-21" style="edgeStyle=orthogonalEdgeStyle;rounded=0;orthogonalLoop=1;jettySize=auto;html=1;exitX=0.5;exitY=1;exitDx=0;exitDy=0;exitPerimeter=0;entryX=0.5;entryY=0;entryDx=0;entryDy=0;entryPerimeter=0;" parent="1" source="UZdyIf10ZG2hCtO2mgoP-17" target="UZdyIf10ZG2hCtO2mgoP-18" edge="1">
          <mxGeometry relative="1" as="geometry" />
        </mxCell>
        <mxCell id="23Pe55zhsIr4CrI0r66G-2" style="edgeStyle=orthogonalEdgeStyle;rounded=0;orthogonalLoop=1;jettySize=auto;html=1;" edge="1" parent="1" source="UZdyIf10ZG2hCtO2mgoP-22">
          <mxGeometry relative="1" as="geometry">
            <mxPoint x="710" y="640" as="targetPoint" />
          </mxGeometry>
        </mxCell>
        <mxCell id="UZdyIf10ZG2hCtO2mgoP-22" value="&lt;font style=&quot;font-size: 11px;&quot; face=&quot;Times New Roman&quot;&gt;INFORMA&lt;/font&gt;&lt;div style=&quot;font-size: 11px;&quot;&gt;&lt;font style=&quot;font-size: 11px;&quot; face=&quot;rVZBAM1_C1D95SyzKNHQ&quot;&gt;CASADO&lt;/font&gt;&lt;/div&gt;" style="shape=display;whiteSpace=wrap;html=1;" parent="1" vertex="1">
          <mxGeometry x="520" y="400" width="90" height="40" as="geometry" />
        </mxCell>
        <mxCell id="23Pe55zhsIr4CrI0r66G-4" style="edgeStyle=orthogonalEdgeStyle;rounded=0;orthogonalLoop=1;jettySize=auto;html=1;exitX=1;exitY=0.5;exitDx=0;exitDy=0;exitPerimeter=0;entryX=1;entryY=0.5;entryDx=0;entryDy=0;" edge="1" parent="1" source="UZdyIf10ZG2hCtO2mgoP-23" target="UZdyIf10ZG2hCtO2mgoP-10">
          <mxGeometry relative="1" as="geometry" />
        </mxCell>
        <mxCell id="UZdyIf10ZG2hCtO2mgoP-23" value="&lt;font style=&quot;font-size: 11px;&quot; face=&quot;Times New Roman&quot;&gt;INFORMA&lt;/font&gt;&lt;div style=&quot;font-size: 11px;&quot;&gt;&lt;font face=&quot;_EokMeFtXdFAfzmfM6nO&quot;&gt;&amp;nbsp; &amp;nbsp; DIVORCIADO&lt;/font&gt;&lt;/div&gt;" style="shape=display;whiteSpace=wrap;html=1;" parent="1" vertex="1">
          <mxGeometry x="520" y="520" width="90" height="40" as="geometry" />
        </mxCell>
        <mxCell id="23Pe55zhsIr4CrI0r66G-3" style="edgeStyle=orthogonalEdgeStyle;rounded=0;orthogonalLoop=1;jettySize=auto;html=1;exitX=1;exitY=0.5;exitDx=0;exitDy=0;exitPerimeter=0;entryX=0;entryY=0.5;entryDx=0;entryDy=0;" edge="1" parent="1" source="UZdyIf10ZG2hCtO2mgoP-27" target="UZdyIf10ZG2hCtO2mgoP-10">
          <mxGeometry relative="1" as="geometry" />
        </mxCell>
        <mxCell id="UZdyIf10ZG2hCtO2mgoP-27" value="&lt;font style=&quot;font-size: 11px;&quot; face=&quot;Times New Roman&quot;&gt;INFORMA&lt;/font&gt;&lt;div style=&quot;font-size: 11px;&quot;&gt;&lt;font face=&quot;_EokMeFtXdFAfzmfM6nO&quot;&gt;VIUVO&lt;/font&gt;&lt;/div&gt;" style="shape=display;whiteSpace=wrap;html=1;" parent="1" vertex="1">
          <mxGeometry x="520" y="640" width="90" height="40" as="geometry" />
        </mxCell>
        <mxCell id="UZdyIf10ZG2hCtO2mgoP-42" style="edgeStyle=orthogonalEdgeStyle;rounded=0;orthogonalLoop=1;jettySize=auto;html=1;exitX=0.5;exitY=1;exitDx=0;exitDy=0;exitPerimeter=0;entryX=0.5;entryY=0;entryDx=0;entryDy=0;" parent="1" source="UZdyIf10ZG2hCtO2mgoP-28" target="UZdyIf10ZG2hCtO2mgoP-2" edge="1">
          <mxGeometry relative="1" as="geometry" />
        </mxCell>
        <mxCell id="UZdyIf10ZG2hCtO2mgoP-28" value="&lt;font style=&quot;font-size: 10px;&quot;&gt;SE LETRA == V&lt;/font&gt;" style="strokeWidth=2;html=1;shape=mxgraph.flowchart.decision;whiteSpace=wrap;" parent="1" vertex="1">
          <mxGeometry x="370" y="610" width="100" height="100" as="geometry" />
        </mxCell>
        <mxCell id="UZdyIf10ZG2hCtO2mgoP-29" style="edgeStyle=orthogonalEdgeStyle;rounded=0;orthogonalLoop=1;jettySize=auto;html=1;exitX=0.5;exitY=1;exitDx=0;exitDy=0;exitPerimeter=0;entryX=0.5;entryY=0;entryDx=0;entryDy=0;entryPerimeter=0;" parent="1" source="UZdyIf10ZG2hCtO2mgoP-18" target="UZdyIf10ZG2hCtO2mgoP-28" edge="1">
          <mxGeometry relative="1" as="geometry" />
        </mxCell>
        <mxCell id="UZdyIf10ZG2hCtO2mgoP-30" style="edgeStyle=orthogonalEdgeStyle;rounded=0;orthogonalLoop=1;jettySize=auto;html=1;exitX=1;exitY=0.5;exitDx=0;exitDy=0;exitPerimeter=0;entryX=0;entryY=0.5;entryDx=0;entryDy=0;entryPerimeter=0;" parent="1" source="UZdyIf10ZG2hCtO2mgoP-28" target="UZdyIf10ZG2hCtO2mgoP-27" edge="1">
          <mxGeometry relative="1" as="geometry" />
        </mxCell>
        <mxCell id="UZdyIf10ZG2hCtO2mgoP-33" value="&lt;font style=&quot;font-size: 14px;&quot;&gt;V&lt;/font&gt;" style="text;html=1;align=center;verticalAlign=middle;whiteSpace=wrap;rounded=0;" parent="1" vertex="1">
          <mxGeometry x="460" y="270" width="60" height="30" as="geometry" />
        </mxCell>
        <mxCell id="UZdyIf10ZG2hCtO2mgoP-34" value="&lt;font style=&quot;font-size: 14px;&quot;&gt;V&lt;/font&gt;" style="text;html=1;align=center;verticalAlign=middle;whiteSpace=wrap;rounded=0;" parent="1" vertex="1">
          <mxGeometry x="460" y="390" width="60" height="30" as="geometry" />
        </mxCell>
        <mxCell id="UZdyIf10ZG2hCtO2mgoP-35" value="&lt;font style=&quot;font-size: 14px;&quot;&gt;V&lt;/font&gt;" style="text;html=1;align=center;verticalAlign=middle;whiteSpace=wrap;rounded=0;" parent="1" vertex="1">
          <mxGeometry x="460" y="510" width="60" height="30" as="geometry" />
        </mxCell>
        <mxCell id="UZdyIf10ZG2hCtO2mgoP-36" value="&lt;font style=&quot;font-size: 14px;&quot;&gt;V&lt;/font&gt;" style="text;html=1;align=center;verticalAlign=middle;whiteSpace=wrap;rounded=0;" parent="1" vertex="1">
          <mxGeometry x="460" y="630" width="60" height="30" as="geometry" />
        </mxCell>
        <mxCell id="UZdyIf10ZG2hCtO2mgoP-37" value="&lt;font style=&quot;font-size: 14px;&quot;&gt;F&lt;/font&gt;" style="text;html=1;align=center;verticalAlign=middle;whiteSpace=wrap;rounded=0;" parent="1" vertex="1">
          <mxGeometry x="410" y="220" width="60" height="30" as="geometry" />
        </mxCell>
        <mxCell id="UZdyIf10ZG2hCtO2mgoP-38" value="&lt;font style=&quot;font-size: 14px;&quot;&gt;F&lt;/font&gt;" style="text;html=1;align=center;verticalAlign=middle;whiteSpace=wrap;rounded=0;" parent="1" vertex="1">
          <mxGeometry x="410" y="340" width="60" height="30" as="geometry" />
        </mxCell>
        <mxCell id="UZdyIf10ZG2hCtO2mgoP-39" value="&lt;font style=&quot;font-size: 14px;&quot;&gt;F&lt;/font&gt;" style="text;html=1;align=center;verticalAlign=middle;whiteSpace=wrap;rounded=0;" parent="1" vertex="1">
          <mxGeometry x="410" y="470" width="60" height="30" as="geometry" />
        </mxCell>
        <mxCell id="UZdyIf10ZG2hCtO2mgoP-40" value="&lt;font style=&quot;font-size: 14px;&quot;&gt;F&lt;/font&gt;" style="text;html=1;align=center;verticalAlign=middle;whiteSpace=wrap;rounded=0;" parent="1" vertex="1">
          <mxGeometry x="410" y="580" width="60" height="30" as="geometry" />
        </mxCell>
      </root>
    </mxGraphModel>
  </diagram>
</mxfile>
